<mxfile host="65bd71144e">
    <diagram id="data-dictionary-reports" name="Report Models Data Dictionary">
        <mxGraphModel dx="827" dy="800" grid="1" gridSize="10" guides="1" tooltips="1" connect="1" arrows="1" fold="1" page="1" pageScale="1" pageWidth="1169" pageHeight="827" math="0" shadow="0">
            <root>
                <mxCell id="0"/>
                <mxCell id="1" parent="0"/>
                <mxCell id="report-title" value="&lt;h2&gt;Report&lt;/h2&gt;" style="text;html=1;strokeColor=none;fillColor=none;align=left;verticalAlign=middle;whiteSpace=wrap;rounded=0;fontStyle=1" parent="1" vertex="1">
                    <mxGeometry x="30" y="10" width="200" height="30" as="geometry"/>
                </mxCell>
                <mxCell id="report-table" value="&lt;table border=&quot;1&quot; width=&quot;100%&quot; cellpadding=&quot;4&quot; style=&quot;width: 100%; height: 100%; border-collapse: collapse;&quot;&gt;&lt;tbody&gt;&lt;tr style=&quot;background-color: rgb(167, 201, 66); color: rgb(255, 255, 255); border: 1px solid rgb(152, 191, 33);&quot;&gt;&lt;th align=&quot;left&quot;&gt;Field&lt;/th&gt;&lt;th align=&quot;left&quot;&gt;Data Type&lt;/th&gt;&lt;th align=&quot;left&quot;&gt;Description&lt;/th&gt;&lt;/tr&gt;&lt;tr&gt;&lt;td&gt;id&lt;/td&gt;&lt;td&gt;AutoField&lt;/td&gt;&lt;td&gt;Primary key&lt;/td&gt;&lt;/tr&gt;&lt;tr style=&quot;background-color: rgb(234, 242, 211);&quot;&gt;&lt;td&gt;name&lt;/td&gt;&lt;td&gt;CharField(100)&lt;/td&gt;&lt;td&gt;Name of the report&lt;/td&gt;&lt;/tr&gt;&lt;tr&gt;&lt;td&gt;description&lt;/td&gt;&lt;td&gt;TextField&lt;/td&gt;&lt;td&gt;Detailed description of the report&lt;/td&gt;&lt;/tr&gt;&lt;tr style=&quot;background-color: rgb(234, 242, 211);&quot;&gt;&lt;td&gt;type&lt;/td&gt;&lt;td&gt;CharField(20)&lt;/td&gt;&lt;td&gt;Type of report (violation, revenue, activity, education)&lt;/td&gt;&lt;/tr&gt;&lt;tr&gt;&lt;td&gt;query_template&lt;/td&gt;&lt;td&gt;TextField&lt;/td&gt;&lt;td&gt;SQL query template or report definition&lt;/td&gt;&lt;/tr&gt;&lt;tr style=&quot;background-color: rgb(234, 242, 211);&quot;&gt;&lt;td&gt;&lt;br&gt;&lt;/td&gt;&lt;td&gt;&lt;/td&gt;&lt;td&gt;&lt;/td&gt;&lt;/tr&gt;&lt;tr&gt;&lt;td&gt;&lt;br&gt;&lt;/td&gt;&lt;td&gt;&lt;/td&gt;&lt;td&gt;&lt;/td&gt;&lt;/tr&gt;&lt;tr style=&quot;background-color: rgb(234, 242, 211);&quot;&gt;&lt;td&gt;is_active&lt;/td&gt;&lt;td&gt;BooleanField&lt;/td&gt;&lt;td&gt;Whether this report is currently active&lt;/td&gt;&lt;/tr&gt;&lt;tr&gt;&lt;td&gt;created_at&lt;/td&gt;&lt;td&gt;DateTimeField&lt;/td&gt;&lt;td&gt;Record creation timestamp&lt;/td&gt;&lt;/tr&gt;&lt;tr style=&quot;background-color: rgb(234, 242, 211);&quot;&gt;&lt;td&gt;updated_at&lt;/td&gt;&lt;td&gt;DateTimeField&lt;/td&gt;&lt;td&gt;Last update timestamp&lt;/td&gt;&lt;/tr&gt;&lt;/tbody&gt;&lt;/table&gt;" style="text;html=1;strokeColor=#c0c0c0;fillColor=#ffffff;overflow=fill;rounded=0;" parent="1" vertex="1">
                    <mxGeometry x="30" y="40" width="700" height="260" as="geometry"/>
                </mxCell>
                <mxCell id="report-permission-title" value="&lt;h2&gt;ReportPermission&lt;/h2&gt;" style="text;html=1;strokeColor=none;fillColor=none;align=left;verticalAlign=middle;whiteSpace=wrap;rounded=0;fontStyle=1" parent="1" vertex="1">
                    <mxGeometry x="30" y="320" width="200" height="30" as="geometry"/>
                </mxCell>
                <mxCell id="report-permission-table" value="&lt;table border=&quot;1&quot; width=&quot;100%&quot; cellpadding=&quot;4&quot; style=&quot;width: 100%; height: 100%; border-collapse: collapse;&quot;&gt;&lt;tr style=&quot;background-color: #A7C942; color: #ffffff; border: 1px solid #98bf21;&quot;&gt;&lt;th align=&quot;left&quot;&gt;Field&lt;/th&gt;&lt;th align=&quot;left&quot;&gt;Data Type&lt;/th&gt;&lt;th align=&quot;left&quot;&gt;Description&lt;/th&gt;&lt;/tr&gt;&lt;tr&gt;&lt;td&gt;id&lt;/td&gt;&lt;td&gt;AutoField&lt;/td&gt;&lt;td&gt;Primary key&lt;/td&gt;&lt;/tr&gt;&lt;tr style=&quot;background-color: #EAF2D3;&quot;&gt;&lt;td&gt;report&lt;/td&gt;&lt;td&gt;ForeignKey&lt;/td&gt;&lt;td&gt;Reference to the Report model&lt;/td&gt;&lt;/tr&gt;&lt;tr&gt;&lt;td&gt;role&lt;/td&gt;&lt;td&gt;CharField(20)&lt;/td&gt;&lt;td&gt;User role that has permission to access report&lt;/td&gt;&lt;/tr&gt;&lt;/table&gt;" style="text;html=1;strokeColor=#c0c0c0;fillColor=#ffffff;overflow=fill;rounded=0;" parent="1" vertex="1">
                    <mxGeometry x="30" y="350" width="700" height="100" as="geometry"/>
                </mxCell>
                <mxCell id="generated-report-title" value="&lt;h2&gt;GeneratedReport&lt;/h2&gt;" style="text;html=1;strokeColor=none;fillColor=none;align=left;verticalAlign=middle;whiteSpace=wrap;rounded=0;fontStyle=1" parent="1" vertex="1">
                    <mxGeometry x="20" y="470" width="200" height="30" as="geometry"/>
                </mxCell>
                <mxCell id="generated-report-table" value="&lt;table border=&quot;1&quot; width=&quot;100%&quot; cellpadding=&quot;4&quot; style=&quot;width: 100%; height: 100%; border-collapse: collapse;&quot;&gt;&lt;tr style=&quot;background-color: #A7C942; color: #ffffff; border: 1px solid #98bf21;&quot;&gt;&lt;th align=&quot;left&quot;&gt;Field&lt;/th&gt;&lt;th align=&quot;left&quot;&gt;Data Type&lt;/th&gt;&lt;th align=&quot;left&quot;&gt;Description&lt;/th&gt;&lt;/tr&gt;&lt;tr&gt;&lt;td&gt;id&lt;/td&gt;&lt;td&gt;AutoField&lt;/td&gt;&lt;td&gt;Primary key&lt;/td&gt;&lt;/tr&gt;&lt;tr style=&quot;background-color: #EAF2D3;&quot;&gt;&lt;td&gt;report&lt;/td&gt;&lt;td&gt;ForeignKey&lt;/td&gt;&lt;td&gt;Reference to the Report model&lt;/td&gt;&lt;/tr&gt;&lt;tr&gt;&lt;td&gt;user&lt;/td&gt;&lt;td&gt;ForeignKey&lt;/td&gt;&lt;td&gt;User who generated the report&lt;/td&gt;&lt;/tr&gt;&lt;tr style=&quot;background-color: #EAF2D3;&quot;&gt;&lt;td&gt;schedule&lt;/td&gt;&lt;td&gt;ForeignKey&lt;/td&gt;&lt;td&gt;Related schedule if auto-generated (optional)&lt;/td&gt;&lt;/tr&gt;&lt;tr&gt;&lt;td&gt;generated_at&lt;/td&gt;&lt;td&gt;DateTimeField&lt;/td&gt;&lt;td&gt;Timestamp when report was generated&lt;/td&gt;&lt;/tr&gt;&lt;tr style=&quot;background-color: #EAF2D3;&quot;&gt;&lt;td&gt;pdf_file&lt;/td&gt;&lt;td&gt;FileField&lt;/td&gt;&lt;td&gt;PDF file of generated report&lt;/td&gt;&lt;/tr&gt;&lt;tr&gt;&lt;td&gt;parameters&lt;/td&gt;&lt;td&gt;JSONField&lt;/td&gt;&lt;td&gt;Parameters used to generate report&lt;/td&gt;&lt;/tr&gt;&lt;/table&gt;" style="text;html=1;strokeColor=#c0c0c0;fillColor=#ffffff;overflow=fill;rounded=0;" parent="1" vertex="1">
                    <mxGeometry x="20" y="500" width="700" height="190" as="geometry"/>
                </mxCell>
                <mxCell id="page-title" value="&lt;h3&gt;Page 2 of 4 - Report Models&lt;/h3&gt;" style="text;html=1;strokeColor=none;fillColor=none;align=center;verticalAlign=middle;whiteSpace=wrap;rounded=0;" parent="1" vertex="1">
                    <mxGeometry x="350" y="900" width="200" height="30" as="geometry"/>
                </mxCell>
            </root>
        </mxGraphModel>
    </diagram>
</mxfile>